<?xml version="1.0" encoding="UTF-8" standalone="no"?>
<svg
   xmlns:dc="http://purl.org/dc/elements/1.1/"
   xmlns:cc="http://creativecommons.org/ns#"
   xmlns:rdf="http://www.w3.org/1999/02/22-rdf-syntax-ns#"
   xmlns:svg="http://www.w3.org/2000/svg"
   xmlns="http://www.w3.org/2000/svg"
   viewBox="0 0 324.09332 95.760002"
   height="95.760002"
   width="324.09332"
   xml:space="preserve"
   id="svg2"
   version="1.1"><metadata
     id="metadata8"><rdf:RDF><cc:Work
         rdf:about=""><dc:format>image/svg+xml</dc:format><dc:type
           rdf:resource="http://purl.org/dc/dcmitype/StillImage" /></cc:Work></rdf:RDF></metadata><defs
     id="defs6" /><g
     transform="matrix(1.3333333,0,0,-1.3333333,0,95.76)"
     id="g10"><g
       transform="scale(0.1)"
       id="g12"><path
         id="path14"
         style="fill:#328ad2;fill-opacity:1;fill-rule:evenodd;stroke:none"
         d="m 1681.2,660.23 h 25.92 V 387.211 c -4.31,1.547 -9.23,2.359 -13.78,2.359 -4.53,0 -8.31,-0.636 -12.14,-1.808 z m 25.92,-349.976 V 37.2461 H 1681.2 V 309.707 c 3.83,-1.172 7.61,-1.816 12.14,-1.816 4.55,0 9.47,0.839 13.78,2.363" /><path
         id="path16"
         style="fill:#328ad2;fill-opacity:1;fill-rule:evenodd;stroke:none"
         d="m 1693.68,384.141 c 19.65,0 35.6,-15.871 35.6,-35.43 0,-19.563 -15.95,-35.41 -35.6,-35.41 -19.68,0 -35.61,15.847 -35.61,35.41 0,19.559 15.93,35.43 35.61,35.43" /><path
         id="path18"
         style="fill:#328ad2;fill-opacity:1;fill-rule:evenodd;stroke:none"
         d="m 949.836,195.801 v 134.238 h -50.379 v 17.852 H 1020.5 V 330.039 H 970.121 V 195.801 Z m 91.544,0 v 152.09 h 57.72 c 10.13,0 17.89,-0.489 23.26,-1.465 7.5,-1.223 13.8,-3.594 18.89,-7.09 5.1,-3.477 9.19,-8.379 12.29,-14.629 3.09,-6.269 4.61,-13.164 4.61,-20.723 0,-12.882 -4.13,-23.808 -12.41,-32.726 -8.25,-8.961 -23.23,-13.426 -44.86,-13.426 h -39.22 v -62.031 z m 20.28,79.883 h 39.5 c 13.09,0 22.35,2.41 27.86,7.254 5.48,4.843 8.21,11.64 8.21,20.449 0,6.359 -1.59,11.789 -4.83,16.32 -3.24,4.539 -7.5,7.551 -12.78,8.984 -3.42,0.899 -9.71,1.348 -18.85,1.348 h -39.11 z m 122.54,-79.883 v 152.09 h 110.38 v -17.852 h -90.11 v -46.73 h 84.34 v -17.821 h -84.34 v -51.836 h 93.75 v -17.851 z m 142.4,152.09 h 18.36 V 227.48 l 81.36,120.411 h 20.04 V 195.801 H 1428 v 120.125 l -81.17,-120.125 h -20.23 z m 76.21,36.511 h 12.81 c -1.03,-8.75 -4.24,-15.461 -9.57,-20.125 -5.35,-4.711 -12.42,-7.062 -21.29,-7.062 -8.89,0 -16,2.351 -21.31,6.98 -5.29,4.688 -8.49,11.399 -9.53,20.207 h 12.81 c 0.96,-4.777 2.91,-8.351 5.8,-10.675 2.88,-2.364 6.8,-3.543 11.67,-3.543 5.65,0 9.93,1.129 12.81,3.445 2.88,2.254 4.84,5.863 5.8,10.773 z m 90.68,-36.511 h 93.09 V 213.652 h 13.67 v -53.3 h -17.94 v 35.449 h -101.19 v -35.449 h -17.93 v 53.3 h 11.75 c 12.36,18.496 18.55,55.84 18.55,111.993 z m 72.8,-17.852 h -53.36 v -7.773 c 0,-12.95 -1.18,-30.703 -3.52,-53.164 -2.33,-22.493 -6.94,-40.977 -13.77,-55.45 h 70.65 v 116.387" /><path
         id="path20"
         style="fill:#f47523;fill-opacity:1;fill-rule:evenodd;stroke:none"
         d="M 0.28125,158.242 H 96.8359 V 35.8984 H 80.5117 V 143.895 H 16.6055 V 35.8984 H 0.28125 Z M 116.039,80.2344 c 0,16.3867 4.586,28.4956 13.77,36.4066 7.648,6.543 17.011,9.812 28.035,9.812 12.215,0 22.23,-3.973 30.027,-11.949 7.758,-7.941 11.656,-18.9688 11.656,-33.0196 0,-11.3867 -1.714,-20.3321 -5.156,-26.836 -3.437,-6.5351 -8.449,-11.5937 -15.035,-15.2343 -6.543,-3.5938 -13.731,-5.4024 -21.492,-5.4024 -12.485,0 -22.563,3.9571 -30.262,11.9063 -7.715,7.9375 -11.543,19.3945 -11.543,34.3164 z M 131.5,80.2148 c 0,-11.3281 2.504,-19.8242 7.48,-25.4296 5.008,-5.6446 11.262,-8.4571 18.864,-8.4571 7.5,0 13.738,2.8125 18.742,8.4766 4.98,5.6641 7.484,14.2969 7.484,25.8984 0,10.9297 -2.523,19.2071 -7.531,24.8319 -5.012,5.617 -11.246,8.438 -18.695,8.438 -7.602,0 -13.856,-2.782 -18.864,-8.379 -4.976,-5.6135 -7.48,-14.0901 -7.48,-25.3792 z m 85.578,44.3752 h 15.113 V 86.3086 c 4.817,0 8.192,0.918 10.137,2.7539 1.914,1.8242 4.746,7.1484 8.531,16.0035 2.981,7.012 5.391,11.633 7.223,13.86 1.863,2.226 3.973,3.73 6.387,4.492 2.422,0.77 6.285,1.172 11.59,1.172 h 3.027 v -12.402 l -4.207,0.085 c -3.981,0 -6.535,-0.593 -7.652,-1.765 -1.153,-1.211 -2.981,-4.863 -5.368,-10.9377 -2.289,-5.8008 -4.386,-9.8242 -6.3,-12.043 -1.903,-2.2148 -4.852,-4.2265 -8.825,-6.1015 6.496,-1.7383 12.918,-7.7344 19.207,-18.0391 L 282.523,35.8984 H 265.922 L 249.566,63.293 c -3.293,5.5547 -6.136,9.1875 -8.582,10.9648 -2.472,1.7578 -5.382,2.6563 -8.793,2.6563 V 35.8984 H 217.078 Z M 293.637,1.79688 291.926,15.7031 c 3.308,-0.8789 6.176,-1.3398 8.64,-1.3398 3.375,0 6.059,0.5586 8.079,1.6719 2.023,1.1132 3.695,2.6836 4.972,4.6875 0.949,1.4921 2.488,5.2343 4.613,11.2109 0.286,0.8398 0.711,2.0508 1.344,3.6914 L 285.73,124.59 h 16.145 l 18.617,-51.2111 c 2.43,-6.4531 4.567,-13.3008 6.504,-20.4687 1.734,6.7461 3.797,13.3984 6.203,19.9414 l 19.008,51.7384 h 15.098 L 333.594,34.3555 C 329.957,24.6367 327.129,17.9883 325.098,14.2969 322.41,9.39453 319.316,5.74219 315.859,3.45703 312.359,1.13281 308.219,0 303.402,0 c -2.918,0 -6.191,0.613281 -9.765,1.79688 z M 380.203,124.59 h 70.445 V 35.8984 H 435.531 V 112.117 H 395.32 V 35.8984 H 380.203 Z M 531.465,46.9922 C 525.852,42.2461 520.445,38.918 515.254,36.9648 510.078,35 504.531,34.0117 498.57,34.0117 c -9.797,0 -17.32,2.3555 -22.597,7.1211 -5.27,4.7344 -7.907,10.793 -7.907,18.1524 0,4.3671 1.016,8.3125 2.981,11.8867 2.016,3.6133 4.621,6.457 7.824,8.6133 3.231,2.1679 6.848,3.8281 10.875,4.9218 2.981,0.7813 7.481,1.5235 13.457,2.2657 12.195,1.4257 21.223,3.1445 26.969,5.1367 0.066,2.0625 0.078,3.3672 0.078,3.9062 0,6.1014 -1.422,10.3904 -4.289,12.8984 -3.859,3.391 -9.613,5.059 -17.227,5.059 -7.136,0 -12.406,-1.239 -15.781,-3.719 -3.402,-2.461 -5.89,-6.856 -7.527,-13.1642 l -14.774,2.0313 c 1.344,6.2889 3.551,11.3869 6.633,15.2619 3.11,3.879 7.563,6.828 13.406,8.937 5.817,2.09 12.594,3.133 20.278,3.133 7.609,0 13.832,-0.887 18.597,-2.664 4.766,-1.797 8.286,-4.004 10.512,-6.719 2.242,-2.695 3.813,-6.132 4.731,-10.265 0.472,-2.547 0.738,-7.1683 0.738,-13.8167 V 73.0664 c 0,-13.9336 0.312,-22.7344 0.945,-26.4648 0.61,-3.7305 1.871,-7.2852 3.688,-10.7032 h -15.801 c -1.524,3.1524 -2.488,6.8555 -2.914,11.0938 z M 530.25,80.332 c -5.484,-2.2265 -13.73,-4.1015 -24.719,-5.6562 -6.238,-0.8672 -10.66,-1.8828 -13.23,-2.9766 -2.571,-1.1133 -4.559,-2.7539 -5.961,-4.8359 -1.402,-2.1485 -2.11,-4.5117 -2.11,-7.1485 0,-3.9453 1.5,-7.2656 4.563,-9.9296 3.082,-2.6368 7.535,-3.9844 13.41,-3.9844 5.817,0 10.985,1.2578 15.539,3.7969 4.531,2.5117 7.879,5.957 10.008,10.3046 1.621,3.3907 2.422,8.3594 2.422,14.9415 z m 38.512,44.258 h 15.109 V 56.9336 l 42.024,67.6564 h 16.222 V 35.8984 H 627.004 V 103.105 L 585.055,35.8984 h -16.293 z m 52.234,32.812 h 10.297 c -0.832,-7.043 -3.406,-12.441 -7.699,-16.211 -4.281,-3.808 -9.985,-5.664 -17.125,-5.664 -7.156,0 -12.883,1.856 -17.145,5.606 -4.269,3.758 -6.844,9.168 -7.676,16.269 h 10.301 c 0.781,-3.847 2.352,-6.718 4.676,-8.613 2.316,-1.906 5.477,-2.851 9.391,-2.851 4.55,0 7.984,0.917 10.308,2.773 2.313,1.816 3.887,4.727 4.672,8.691 z m 91.461,-32.812 h 34.789 c 8.531,0 14.883,-0.723 19.063,-2.129 4.16,-1.438 7.722,-4.023 10.707,-7.813 3.011,-3.808 4.5,-8.339 4.5,-13.632 0,-4.2699 -0.879,-7.9613 -2.629,-11.0941 -1.778,-3.1641 -4.41,-5.8125 -7.965,-7.918 4.176,-1.3906 7.652,-3.9766 10.43,-7.8164 2.734,-3.7578 4.113,-8.3086 4.113,-13.5234 -0.543,-8.3907 -3.57,-14.6407 -9.039,-18.6719 -5.473,-4.082 -13.43,-6.0938 -23.86,-6.0938 h -40.109 z m 15.109,-37.4337 h 16.047 c 6.387,0 10.789,0.3437 13.164,0.996 2.403,0.6758 4.551,2.0118 6.45,4.0743 1.886,2.0117 2.836,4.4726 2.836,7.3125 0,4.7189 -1.672,7.9489 -4.965,9.8159 -3.325,1.836 -8.989,2.762 -17.012,2.762 h -16.52 z m 0,-38.9727 h 19.84 c 8.532,0 14.414,1.0156 17.59,2.9883 3.18,1.9726 4.848,5.3711 5.008,10.2539 0,2.8125 -0.91,5.457 -2.746,7.8789 -1.867,2.4219 -4.262,3.957 -7.207,4.6016 -2.961,0.625 -7.707,0.9375 -14.238,0.9375 h -18.247 z m 132.446,20.1758 14.785,-2.0508 c -1.637,-10.0977 -5.766,-18.0078 -12.43,-23.7188 -6.664,-5.7343 -14.883,-8.5781 -24.59,-8.5781 -12.168,0 -21.957,3.9571 -29.339,11.8867 -7.438,7.9102 -11.125,19.2461 -11.125,33.9922 0,9.5821 1.609,17.9102 4.789,25.0894 3.175,7.168 8.019,12.54 14.535,16.106 6.504,3.582 13.574,5.367 21.254,5.367 9.644,0 17.57,-2.422 23.707,-7.265 6.14,-4.872 10.105,-11.805 11.824,-20.7622 l -14.609,-2.2149 c -1.407,5.9651 -3.864,10.4301 -7.446,13.4451 -3.554,3 -7.844,4.504 -12.89,4.504 -7.614,0 -13.786,-2.695 -18.567,-8.105 -4.742,-5.461 -7.137,-13.9847 -7.137,-25.723 0,-11.8945 2.29,-20.5586 6.875,-25.9179 4.622,-5.3907 10.59,-8.086 17.95,-8.086 5.957,0 10.918,1.7852 14.863,5.4102 3.98,3.5937 6.504,9.1289 7.551,16.6211 z m 88.465,-3.7617 15.64,-2.0469 c -2.441,-9.0156 -7,-16.0664 -13.629,-21.0469 -6.644,-4.9805 -15.113,-7.4922 -25.453,-7.4922 -12.992,0 -23.305,3.9961 -30.918,11.9531 -7.613,7.961 -11.426,19.1641 -11.426,33.5274 0,14.8711 3.848,26.4258 11.539,34.6488 7.696,8.222 17.7,12.312 29.965,12.312 11.883,0 21.598,-3.992 29.129,-12.07 7.531,-8.055 11.309,-19.4025 11.309,-33.9924 0,-0.8984 -0.028,-2.2383 -0.09,-4.0039 h -66.398 c 0.589,-9.6875 3.324,-17.1601 8.32,-22.3437 4.941,-5.125 11.148,-7.7149 18.57,-7.7149 5.531,0 10.246,1.4336 14.145,4.3555 3.925,2.8906 7.019,7.5195 9.297,13.9141 z m -49.461,24.0937 h 49.64 c -0.652,7.4688 -2.57,13.0546 -5.695,16.7776 -4.781,5.801 -11.023,8.691 -18.664,8.691 -6.93,0 -12.738,-2.305 -17.477,-6.914 -4.679,-4.629 -7.3,-10.8124 -7.804,-18.5546 z m 0.687,46.8356 v 17.102 h 15.801 v -17.102 z m 31.25,0 v 17.102 h 15.82 v -17.102 z m 94.307,-55.2926 c 0,16.3867 4.59,28.4956 13.78,36.4066 7.64,6.543 17.01,9.812 28.03,9.812 12.21,0 22.25,-3.973 30.03,-11.949 7.75,-7.941 11.65,-18.9688 11.65,-33.0196 0,-11.3867 -1.71,-20.3321 -5.15,-26.836 -3.44,-6.5351 -8.45,-11.5937 -15.04,-15.2343 -6.54,-3.5938 -13.73,-5.4024 -21.49,-5.4024 -12.48,0 -22.56,3.9571 -30.26,11.9063 -7.71,7.9375 -11.55,19.3945 -11.55,34.3164 z m 15.48,-0.0196 c 0,-11.3281 2.49,-19.8242 7.46,-25.4296 5.02,-5.6446 11.29,-8.4571 18.87,-8.4571 7.5,0 13.74,2.8125 18.75,8.4766 4.99,5.6641 7.48,14.2969 7.48,25.8984 0,10.9297 -2.52,19.2071 -7.54,24.8319 -5,5.617 -11.24,8.438 -18.69,8.438 -7.58,0 -13.85,-2.782 -18.87,-8.379 -4.97,-5.6135 -7.46,-14.0901 -7.46,-25.3792 z m 85.75,44.3752 h 15.11 V 87.6836 h 41.92 V 124.59 h 15.11 V 35.8984 h -15.11 V 75.2031 H 1141.6 V 35.8984 h -15.11 z m 102.24,0 h 70.23 V 35.9766 h -15.11 v 76.1404 h -40.02 V 67.9883 c 0,-10.2735 -0.34,-17.0508 -1,-20.3516 -0.7,-3.2812 -2.51,-6.1328 -5.53,-8.5859 -3.03,-2.4492 -7.38,-3.668 -13.08,-3.668 -3.52,0 -7.58,0.2422 -12.16,0.6524 v 12.5195 h 6.61 c 3.12,0 5.35,0.293 6.7,0.9492 1.34,0.625 2.22,1.668 2.68,3.0469 0.44,1.3945 0.68,5.9258 0.68,13.582 z M 1379.8,46.9922 c -5.63,-4.7461 -11.02,-8.0742 -16.21,-10.0274 -5.18,-1.9648 -10.74,-2.9531 -16.68,-2.9531 -9.8,0 -17.33,2.3555 -22.6,7.1211 -5.27,4.7344 -7.91,10.793 -7.91,18.1524 0,4.3671 1.02,8.3125 2.99,11.8867 2.01,3.6133 4.61,6.457 7.81,8.6133 3.22,2.1679 6.84,3.8281 10.88,4.9218 2.98,0.7813 7.46,1.5235 13.46,2.2657 12.2,1.4257 21.21,3.1445 26.96,5.1367 0.07,2.0625 0.09,3.3672 0.09,3.9062 0,6.1014 -1.43,10.3904 -4.3,12.8984 -3.86,3.391 -9.63,5.059 -17.23,5.059 -7.12,0 -12.4,-1.239 -15.78,-3.719 -3.39,-2.461 -5.88,-6.856 -7.53,-13.1642 l -14.76,2.0313 c 1.34,6.2889 3.55,11.3869 6.65,15.2619 3.07,3.879 7.54,6.828 13.39,8.937 5.81,2.09 12.59,3.133 20.26,3.133 7.62,0 13.85,-0.887 18.63,-2.664 4.74,-1.797 8.27,-4.004 10.49,-6.719 2.23,-2.695 3.81,-6.132 4.73,-10.265 0.49,-2.547 0.74,-7.1683 0.74,-13.8167 V 73.0664 c 0,-13.9336 0.31,-22.7344 0.95,-26.4648 0.6,-3.7305 1.84,-7.2852 3.68,-10.7032 h -15.8 c -1.52,3.1524 -2.48,6.8555 -2.91,11.0938 z m -1.21,33.3398 c -5.49,-2.2265 -13.74,-4.1015 -24.75,-5.6562 -6.21,-0.8672 -10.64,-1.8828 -13.2,-2.9766 -2.6,-1.1133 -4.55,-2.7539 -5.97,-4.8359 -1.4,-2.1485 -2.12,-4.5117 -2.12,-7.1485 0,-3.9453 1.52,-7.2656 4.57,-9.9296 3.09,-2.6368 7.54,-3.9844 13.42,-3.9844 5.8,0 10.99,1.2578 15.54,3.7969 4.54,2.5117 7.88,5.957 9.99,10.3046 1.63,3.3907 2.43,8.3594 2.43,14.9415 z m 38.51,44.258 h 15.11 V 56.9336 l 42.01,67.6564 h 16.22 V 35.8984 h -15.1 v 67.2066 l -41.95,-67.2066 h -16.29 z m 52.23,32.812 h 10.29 c -0.84,-7.043 -3.39,-12.441 -7.69,-16.211 -4.29,-3.808 -9.99,-5.664 -17.13,-5.664 -7.15,0 -12.88,1.856 -17.14,5.606 -4.27,3.758 -6.84,9.168 -7.68,16.269 h 10.32 c 0.77,-3.847 2.34,-6.718 4.67,-8.613 2.31,-1.906 5.46,-2.851 9.38,-2.851 4.55,0 7.99,0.917 10.31,2.773 2.33,1.816 3.9,4.727 4.67,8.691 z m 43.73,-32.812 h 15.13 V 87.6836 h 41.91 V 124.59 h 15.12 V 35.8984 h -15.12 v 39.3047 h -41.91 V 35.8984 h -15.13 V 124.59" /><path
         id="path22"
         style="fill:#f47523;fill-opacity:1;fill-rule:evenodd;stroke:none"
         d="M 2430.72,660.508 H 1810.4 V 37.3359 h 620.32 V 660.508" /><path
         id="path24"
         style="fill:#ffffff;fill-opacity:1;fill-rule:evenodd;stroke:none"
         d="m 1831.07,492.168 h 162.58 c 35.41,0 61.94,-8.273 79.59,-24.855 17.6,-16.598 26.44,-40.227 26.44,-70.86 0,-31.469 -9.64,-56.094 -28.86,-73.777 -19.22,-17.754 -48.6,-26.582 -88.05,-26.582 h -53.61 V 180.859 h -98.09 z m 98.09,-133.047 h 24.08 c 19,0 32.32,3.262 39.99,9.723 7.64,6.437 11.47,14.711 11.47,24.754 0,9.797 -3.31,18.066 -10.02,24.879 -6.61,6.796 -19.14,10.214 -37.54,10.214 h -27.98 z m 191.81,133.047 h 106.02 l 43.94,-128.262 43.08,128.262 h 99.4 l -103.66,-240.43 c -8.47,-19.336 -15.91,-33.84 -22.24,-43.332 -6.32,-9.558 -15.69,-17.39 -28.12,-23.562 -12.44,-6.153 -29.54,-9.199 -51.25,-9.199 -11.5,0 -31.29,1.601 -59.36,4.851 v 64.27 c 16.57,-1.739 28.66,-2.598 36.24,-2.598 22.59,0 36.36,8.27 41.23,24.871 l -105.28,225.129" /><path
         id="path26"
         style="fill:#328ad2;fill-opacity:1;fill-rule:evenodd;stroke:none"
         d="m 0,536.441 c 0,39.727 10.7773,70.657 32.3711,92.739 21.5977,22.168 51.6445,33.207 90.2029,33.207 39.496,0 69.93,-10.875 91.293,-32.582 21.371,-21.75 32.028,-52.231 32.028,-91.379 0,-28.446 -4.629,-51.727 -13.965,-69.91 -9.332,-18.2 -22.871,-32.36 -40.489,-42.5 -17.668,-10.141 -39.66,-15.188 -66.003,-15.188 -26.7349,0 -48.8755,4.375 -66.4458,13.102 -17.5039,8.773 -31.7617,22.59 -42.6367,41.515 C 5.47266,484.316 0,508.004 0,536.441 Z m 73.2617,-0.156 c 0,-24.551 4.4492,-42.215 13.3555,-52.93 8.9375,-10.703 21.0938,-16.089 36.4488,-16.089 15.735,0 27.997,5.277 36.629,15.757 8.657,10.524 12.965,29.329 12.965,56.594 0,22.899 -4.519,39.598 -13.523,50.133 -9.059,10.598 -21.27,15.875 -36.727,15.875 -14.805,0 -26.7381,-5.395 -35.6756,-16.105 C 77.7109,578.816 73.2617,561.039 73.2617,536.285 Z M 285.668,658.309 h 73.238 v -84.985 h 80.196 v 84.985 h 73.586 V 414.918 H 439.102 V 513.48 H 358.906 V 414.918 H 285.668 Z M 779.453,414.918 h -73.238 v 183.559 h -57.32 v -74.84 c 0,-30.762 -1.606,-53.375 -4.762,-67.817 -3.195,-14.433 -10.649,-25.043 -22.371,-31.793 -11.707,-6.738 -30.578,-10.14 -56.719,-10.14 -7.953,0 -17.121,0.898 -27.504,2.672 v 49.343 h 10.984 c 9.895,0 16.903,2.266 20.993,6.75 4.078,4.473 6.121,12.668 6.121,24.649 v 161.008 h 203.816 z m 194.418,40.121 h -83.074 l -11.926,-40.121 h -74.844 l 89.325,243.391 h 80.238 l 88.93,-243.391 H 985.742 Z M 958.352,507.73 932.445,595.195 906.426,507.73 Z M 1312.67,658.309 V 414.918 h -68.92 V 548.559 L 1155.54,414.918 H 1086 v 243.391 h 69.25 V 523.637 l 88.88,134.672 z m -53.69,59.843 c -2.26,-13.949 -8.83,-25.164 -19.67,-33.722 -10.82,-8.555 -23.74,-12.86 -38.7,-12.86 -14.92,0 -27.79,4.305 -38.73,12.922 -10.86,8.61 -17.4,19.824 -19.55,33.66 h 27.84 c 4.59,-13.836 14.47,-20.742 29.77,-20.742 16.36,0 26.73,6.906 31.21,20.742 z m 103.07,-59.843 h 73.24 v -84.985 h 80.19 v 84.985 h 73.57 V 414.918 h -73.57 v 98.562 h -80.19 v -98.562 h -73.24 v 243.391" /></g></g></svg>